/* XPM */
static char *_2778808543e4fe78f45af1ffc0f4a8blCfspNobieQkkUEV[] = {
/* columns rows colors chars-per-pixel */
"32 32 147 2 ",
"   c None",
".  c #251B00",
"X  c #332600",
"o  c #362900",
"O  c #3C2D00",
"+  c #433300",
"@  c #493700",
"#  c #4C3A00",
"$  c #523E00",
"%  c #564100",
"&  c #5C4600",
"*  c #5E4803",
"=  c #634B03",
"-  c #6D5406",
";  c #6B540C",
":  c #725806",
">  c #70570B",
",  c #755B0C",
"<  c #785E0A",
"1  c #6C571A",
"2  c #795F10",
"3  c #7C6110",
"4  c #836716",
"5  c #826817",
"6  c #856B1A",
"7  c #896D1C",
"8  c #8A701F",
"9  c #8E7423",
"0  c #917624",
"q  c #957A27",
"w  c #967C2B",
"e  c #997D29",
"r  c #9E812C",
"t  c #9B8130",
"y  c #A38632",
"u  c #A58935",
"i  c #A98C36",
"p  c #A48938",
"a  c #AB8F3D",
"s  c #AE913F",
"d  c #B1943F",
"f  c #AE9240",
"g  c #B39641",
"h  c #B59844",
"j  c #BA9D47",
"k  c #B79B49",
"l  c #BB9E4B",
"z  c #BEA14D",
"x  c #BFA650",
"c  c #C1A44E",
"v  c #C4A651",
"b  c #C7AA55",
"n  c #CAAC55",
"m  c #CDAF59",
"M  c #CEB05A",
"N  c #D4B55D",
"B  c #D3B661",
"V  c #D7B962",
"C  c #DBBC65",
"Z  c #DBBE6A",
"A  c #DEC16B",
"S  c #E3C46C",
"D  c #E8C76E",
"F  c #E9C96F",
"G  c #E3C671",
"H  c #E6C973",
"J  c #EBCC74",
"K  c #EDCF78",
"L  c #EED07A",
"P  c #F1D077",
"I  c #F4D57C",
"U  c #F8D77D",
"Y  c #F7D87E",
"T  c #F9D97E",
"R  c #F5D780",
"E  c #F7D982",
"W  c #FDDE85",
"Q  c #FBDC83",
"!  c #FCDF88",
"~  c #F9E187",
"^  c #FBE187",
"/  c #FFE085",
"(  c #FFE086",
")  c #FFE087",
"_  c #FFE187",
"`  c #FEE287",
"'  c #FFE287",
"]  c #FEE187",
"[  c #FAE389",
"{  c #FDE18A",
"}  c #FEE18A",
"|  c #FFE38B",
" . c #FBE489",
".. c #F9E68B",
"X. c #FEE58B",
"o. c #FFE58B",
"O. c #FFE68B",
"+. c #FFE38C",
"@. c #F8E78F",
"#. c #FFE68C",
"$. c #FFE78D",
"%. c #FFE58E",
"&. c #FFE48B",
"*. c #FFE98D",
"=. c #FFE98E",
"-. c #FFEA8F",
";. c #FEE98E",
":. c #FFE990",
">. c #FFEA91",
",. c #FFEB91",
"<. c #FFEB92",
"1. c #FFEC91",
"2. c #FFED91",
"3. c #FFED92",
"4. c #FFED93",
"5. c #FFEE92",
"6. c #FFEE93",
"7. c #FFEF93",
"8. c #FFED94",
"9. c #FFEE94",
"0. c #FFEF94",
"q. c #FFEE95",
"w. c #FFEF96",
"e. c #FFEC92",
"r. c #FFF094",
"t. c #FFF095",
"y. c #FFF195",
"u. c #FFF096",
"i. c #FFF196",
"p. c #FFF197",
"a. c #FFF296",
"s. c #FFF297",
"d. c #FFF397",
"f. c #FFF196",
"g. c #FFF298",
"h. c #FFF398",
"j. c #FFF39A",
"k. c #FFF498",
"l. c #FFF499",
"z. c #FFF49A",
"x. c #FFF59A",
"c. c #FFF59B",
"v. c #FFF69A",
"b. c #FFF69B",
"n. c #FFF79B",
"m. c #FFF69C",
"M. c #FFF59A",
/* pixels */
"                                                                ",
"                          e Y Q Q J 0                           ",
"                    *.# F Y *.%.{ E l & X V                     ",
"                <.u v.u.g.u.*.I Q y Q J R J + Z                 ",
"              0 h C u.% F 4 T z Q P m a K S V n 9               ",
"            O b d.~ * y y O.*./ Q Q Q V K H o S 9 p             ",
"          ; S g.u.3 Y v.5.Y L < q C P U U k $ H H v w           ",
"        e 6 c.u.u.d.d.v.r.~ F a.I S i 0 L I L J G V J w         ",
"      %.H m.<.A q.u.n.n.T P T / I C c S % Q L A B O H 6 G       ",
"      0 3 @.c.q.q.u.c.u.a.T / a.N P N m B V Q P H H Z f w       ",
"    I = q.e.<.q.u.d.c.d.T 1 / a.r.D F n c O U Q K K H G + G     ",
"    @ . Q 6 q.g.c.u.v.' I F Y y r.T F C J + W O.Q K Z G 0 p     ",
"    0 %.k { q.g.d.u.' J h T a.i T ~ y M D F *./ ! R V V A w     ",
"  f = +.+.K <.q.c.d.....S / a.a.^ 5.i F * Y e.~ E R A x G * $   ",
"  m @ R W y q.<.r.d.*.v.S n S a.2.T S M + d.c.e.! %.E R J ; A   ",
"  Z + L E ! q.%.u.r.-.v.N M F *.v.N D N U c.u.u.<.{ %.H f 2 R   ",
"  G o A = { O.{ 5.2.y.7 d S S 5.N 5.T u N v.r.r.e.e.{ S K < !   ",
"  Z o J H Y %.O.O.5.d.y.S @ n v.v.r F S % 5.r.u.u.c.<.a E - R   ",
"  8 , A L K / { *.r.v.a./ 5.T v.J T S S S < r.d.u.u.E ! L , >   ",
"    6 J S g E { -.-.a.O.T d T F T y.O.T F P J d.u.<.e.%.! k     ",
"    O f H H H Q ' O.e.P C P D O.n.n.d.O.P C A Y p.p.+.%.{ v     ",
"    z o G B G I O.Q K Y F N P T d.k.2.O.S S ' n w.%.+ ! 5 %.    ",
"      9 H O @ N T A C j C S P T d.*.*.y.T P *.@ g.q - j.l       ",
"      x % J J % F j F m m S S P T T *.*.T O.y.# *.@ m.H <.      ",
"        * H R , G x Z h g c c V *.Q J O.c.*.d O.3 m.h @.        ",
"          = O A 3 o V = C N e c *.z D O.+ -.z u.q.K m.          ",
"            8 H H # O B g Z = $ # % F O.u.^ 0 u.g.,             ",
"              ; 5 J S x b # n > *.@ U N e.u.u.u Q               ",
"                h % V M L J J O 3 0 ^ u.*.N * K                 ",
"                    f O = y M 0 y v q @ 6 J                     ",
"                          # v c n m +                           ",
"                                                                "
};
