/* XPM */
static char *c86a66224fee4e31e5e661d19d7ca38bh4AEjSWTAclCWb51[] = {
/* columns rows colors chars-per-pixel */
"64 64 163 2 ",
"   c None",
".  c #0A0700",
"X  c #171100",
"o  c #1C1500",
"O  c #241A00",
"+  c #291E00",
"@  c #2C2000",
"#  c #322600",
"$  c #362900",
"%  c #3B2D00",
"&  c #3F3000",
"*  c #433300",
"=  c #483700",
"-  c #4D3A00",
";  c #4F3D08",
":  c #523E00",
">  c #564100",
",  c #5B4500",
"<  c #5F4903",
"1  c #644C02",
"2  c #694F02",
"3  c #6B5204",
"4  c #6F560A",
"5  c #705607",
"6  c #735807",
"7  c #705708",
"8  c #745A0B",
"9  c #795F0D",
"0  c #6B5410",
"q  c #755D12",
"w  c #785F11",
"e  c #7B610F",
"r  c #7D6313",
"t  c #826615",
"y  c #846916",
"u  c #806618",
"i  c #856A1A",
"p  c #896E1C",
"a  c #8C711E",
"s  c #8E7321",
"d  c #917624",
"f  c #957926",
"g  c #997D27",
"h  c #957B2A",
"j  c #9A7E2B",
"k  c #9D812D",
"l  c #9E8331",
"z  c #A0832E",
"x  c #A28532",
"c  c #A58935",
"v  c #A98C37",
"b  c #A68B39",
"n  c #AA8E3A",
"m  c #AD913C",
"M  c #B1943F",
"N  c #AF9341",
"B  c #B29542",
"V  c #B69A45",
"C  c #B99C46",
"Z  c #B69B48",
"A  c #BA9E49",
"S  c #BEA14C",
"D  c #BFA350",
"F  c #C2A44D",
"G  c #C3A551",
"H  c #C6A954",
"J  c #CAAC55",
"K  c #C7AB58",
"L  c #CBAE59",
"P  c #CEB15B",
"I  c #D3B45D",
"U  c #CFB360",
"Y  c #D3B561",
"T  c #D6B963",
"R  c #DBBC64",
"E  c #DBBE69",
"W  c #DFC067",
"Q  c #DEC16B",
"!  c #E0C067",
"~  c #E3C46C",
"^  c #E8C76F",
"/  c #E7C86F",
"(  c #E8C86F",
")  c #E4C671",
"_  c #E6C973",
"`  c #EBCC74",
"'  c #EDCF79",
"]  c #F0CF76",
"[  c #EFD077",
"{  c #EED17A",
"}  c #EFD87E",
"|  c #F1D077",
" . c #F3D47B",
".. c #F8D77D",
"X. c #F7D87F",
"o. c #F9D97F",
"O. c #F4D680",
"+. c #F6D982",
"@. c #FADC82",
"#. c #FCDD83",
"$. c #FCDE83",
"%. c #FBDF84",
"&. c #FDDE85",
"*. c #FEDE85",
"=. c #FCDD86",
"-. c #FEDF86",
";. c #FBDC83",
":. c #F6DE88",
">. c #FDDF88",
",. c #F7E187",
"<. c #FBE086",
"1. c #FFE187",
"2. c #FEE087",
"3. c #FFE287",
"4. c #FEE186",
"5. c #FCE389",
"6. c #FFE388",
"7. c #FFE489",
"8. c #FCE58B",
"9. c #FFE58B",
"0. c #FFE58A",
"q. c #FFE78D",
"w. c #FFE78D",
"e. c #FFE58B",
"r. c #FFE88D",
"t. c #FFE98D",
"y. c #FFE98E",
"u. c #FEE98E",
"i. c #FDEB8F",
"p. c #FFEA8F",
"a. c #FFE98E",
"s. c #FFE790",
"d. c #FFEA91",
"f. c #FFEB91",
"g. c #FFEA92",
"h. c #FEEC91",
"j. c #FFEC93",
"k. c #FFEE93",
"l. c #FFEE94",
"z. c #FFEF95",
"x. c #FFED93",
"c. c #FFF094",
"v. c #FFF095",
"b. c #FEF195",
"n. c #FFF195",
"m. c #FFF096",
"M. c #FFF196",
"N. c #FFF296",
"B. c #FFF297",
"V. c #FFF196",
"C. c #FFF298",
"Z. c #FFF398",
"A. c #FFF399",
"S. c #FFF499",
"D. c #FFF599",
"F. c #FFF49A",
"G. c #FFF59A",
"H. c #FFF59B",
"J. c #FFF69A",
"K. c #FFF79C",
"L. c #FFF499",
"P. c #FFF89C",
"I. c #FFF89C",
/* pixels */
"                                                                                                                                ",
"                                                                                                                                ",
"                                                                                                                                ",
"                                                  $.y.m.) a 1 2 , 4 x ~ +.=.J                                                   ",
"                                          m 7.D.1 H M G e p - m * ~ >  .9 Q h > T ` u                                           ",
"                                      @.c.3 4.t.f a 3 x t V m R S R p G =  .* _ s ) 1 ) n                                       ",
"                                  ` P.- I S 6 M g m.m.m.c.y.y.7.-.7.+.| +.O.+.K - ' < ) 3 ) u                                   ",
"                                m.1 f f > p.I c.G.m.! I t.p.: - >.6.C ,  .O.I ) { Y E A * G % )                                 ",
"                             .+.6 B a G.y.G.t.<.> G.<.i  .7.W - ..S d  .+.~ * 1 ` ' E ~ ' u % E L b                             ",
"                          1.4 F [ G.7.y.m.m./ W n 1.m.F = t.- m W B F = +.j T > ! B * _ ` E _ ' > 3 U                           ",
"                        c.& 1.V H m.c. ., m.W 4 m.7.~ ,  .@.X.o.;.+.| ` -.r 1 w _ a Y _ s E ) D G H $ '                         ",
"                      j.s k B v m. .~ H W V m.y I t.7.t.7.` | X. . .-.8.-.-.=...d * ) ) K Z p ) G 8 ) i E                       ",
"                    j.- G m G.m.C.G.5.) = - P.c.P.c.7.p.S x F a P ! ~  . .;...+.` | | $  .% T _ ) ) 2 < Z E                     ",
"                  s.$ 5.v K.C.m.C.C.P = 7.N.N.P.N.t.o.c.W P W ( ! n y f ^ ~ ..] =.+.` ' 9 G _ ) _ ) E K N & Q                   ",
"                 .9 s 8.' l.K.m.m.K.c.c.m.G.P.c.P.7...j.M ( t.o.$.R ~ I p y I ` ~ | ..|  .` ' ` _ _ E E Q ) r d                 ",
"                +.N G C.m.5.d.C.C.m.G.m.G.m.N.D.b.t.d J D.b.b.o. .R ! C ! p J : ~ )  .+.O.)  ._ ) G 7 E Q 2 q K                 ",
"              l.L r C.C.>.s.G. .C.C.m.G.m.m.G.m.D.[ ~ o.....| ....( ! I I I ] ( - ~ ....+. .~ ` _ _ _ K E ) U N E               ",
"            =.= ` 1 C.>.T j.C.Y G.C.m.C.m.P.N.m.t.....| | | ..t.( I ( F H F I ! I > ^ ^ +. . .' b ` d U Q E , P i i             ",
"            j.Y > A.z.m.s.p , d.l.C.G.G.N.m.N.c.t.N.| 4.o.t.t.t.~ R J ! J ! F J I m d `  .+... .` U Y Y _ ) E N j O.            ",
"          >.O A.c m.j.m.A.m.A.C.C.K.m.G.m.N.G.7.I X.[ e R o.b.b.t.z ! I ! I I J R C > ~ | ;.+...' O._ E Q Y E L _ s h           ",
"          l.N d A.s.s. .6.A.C.C.m.N.P.m.N.N.p.1.t...| h.t.v c.N.b.I.I ( I I ! J I ` C F  .+.$...+. .' ~ T ) K Q T 1 '           ",
"        Z : j.s.s.T +.j.1 l.K.l.G.P.m.P.m.N.7.P 7.[ 4 o m t.b.N.D.7.I o.! ( I J A I J ,  ...;.-.O. .Y _ ' ) T E ) Y r =         ",
"        O.8 E :.l.' Y N  .A.C.l.G.m.P.N.N.c.| N.o.W k 3 o.< N.C t.t.o.N.! R ! J H I ! $ | 1.-.X.e.+.] T # S ) K ) l - E         ",
"        =.K K s.s.l.6.s.C.>.K.C.N.G.m.P.c.7.[ 7.( ( ! o.b.I.I } I.} ( ..~ ( I I J ( y H  .7.y.1.=.+. .' E _ ) ) E O.E E         ",
"        : n : >.s.=.>.s.l.m.C.C.G.m.N.G.b.7.7.o.o.F o.7.c.c.R ] t.7.I N.t.I I ( ~ I X ( $.t.y.$.=. .O. .` ) N L Q U d h         ",
"      :.q s.O. .=.O.Y 6.m.l.C.l.m.G.m.G.j.4.H C ~ ( 7...o.D.J ( N.t.7.N.J 7.R ( I M k o.7.7.j.7. .+.E O.' ' E E U ' E D N       ",
"      ' w d =.U  .=.$ e.8.s.d.l.N.G.m.P.N.t.F t.o.~ ....b.I S D.F S J t.o.o.( ! I > X.1.j.m.p.1.;.;.+.>.E )  .E U _ q 4 `       ",
"      ) O.' :.O.s u T >.d.m.8.8.m.N.P.N.j. .| > k ! ` b.t.M b.<.b.o.t.b.t.o.| R J e o.c.p.m.j.y.-.-.=.>.` R : S E ' ' K E       ",
"      K B & +.=.O.Y x ` d.>.C.d.G.P.c.G.c.7.I F I I ] | c.z 7.i.D.F o.v v ( | ! y ` j.t.G.c.m.y.+.>.+.e.O.' ' ~ ' _ r N E       ",
"      p =.+.O.) +.' ) >.8.l.l.l.y.N.P.N.b.4.C J | ( ! m F W N.t.t.I.7.o.( ] / I # | j.N.N.j.m.m.l.e.-.7.+.+.Y E ) ' ) Q D       ",
"      - G > =.E  .8 +.6.d.1.l.d.m.m.m.c.p.3...7.| ! M | ( N.| o.b.7.o.| C W R F 4 7.P.c.P.m.m.G.+.j.6.=.s.U O.E 1 _ ) U b       ",
"      : +.O.` E O.+.` >.>.l.y.l.j.y.P.N.P.4.J o.] I F ~ ( o.o.t.o.D.t ( I J I e [ t.c.G.N.G.C.m.C.d.8.;.=.' E O.r E { O.l       ",
"      * D < O.h  .* ` =.6.7.l.8.b.D.h.I.b.t.k I F I R R ! ..t.7.D./  .a |  ...I y ..N.N.P.m.m.G.j.j.y.7.e.+.x * K ' Y ) N       ",
"      - E O.O._ E  .Q 6.-.8.s.d.D.D.t.N.t.b.o.k H J W I W ! | p I b.b.D.t.c J J > o.c.m.N.N.G.N.p.j.j.y.>.+.=.] O.O.O.' Z       ",
"      r N ; ` O.=.' O.=.e.6.s.8.p.N.N.N.b.b.h.o.~ 3 m I J ! d N.D.D.D.o.J R R ! C S c.N.N.m.N.G.C.d.y.8.s.=.O.'  .+. .O.Q       ",
"      P u ' ' _ A h ' =.6.6.m.8.c.P.t.I.b.N.b.t.t.| I , J o.h.N.D.b.z o...( ( ( W 1 4.c.P.N.N.G.m.C.6.y.s.8.' ` _ O.O.E :.      ",
"      E q = ) Y _  .h  .=.-.8.e.t.c.N.j.b.b.D.I.t.o.] ( o.3.o.b.N.| o.t.o.| ..W ! ( > 4.c.N.m.m.K.C.j.8.s.E =.=.- O.Y K `       ",
"      U > L { b _ +.K O.+...e.6.p.c.j.P.b.D.I.b.b...X.I.| t.t.b.I c.N.o.o.o.( ! ! ~ M I c.j.N.P.l.j.l.d.s.' A q E +.O.h O.      ",
"      E ; , s _ Y Y ' O.=.=.=.-.y.y.c.c.h.N.b.I.o.] m R o.t.o.( o.N.N.c.t.| | ] ! I ` a / j.N.m.K.l.m.j.s.j.e.=.>.' +.i )       ",
"        & 1 ) ` _ O.] O.] ` $.-.7.y.6.c.h.h.7...t.! ! k o.p ! 7.o.t.N.N.i.t.t.| ( ( ]  .: o.j.G.l.K.l.l.C.s.j.>.+.>.K Z         ",
"        P ; + _ ' ' { O.{ O.+.-.7.6.y.l.j.y.$.` ( ( ! ~ I ( 3.t.c.c.N.D.b.t.7. .| ( ( / ~ 3 t.j.m.C.C.j.s.s.s.s.s.S h :.        ",
"        U $ Z _ ' _ A s  .{ =.+.-.8.-.y.y.1.` ..g ( I ] ( ] 7.p.b.N.i.b.N.N.7.o.] / / W | k  .t.C.C.m.j.2 e.=.s.>.z.i =.        ",
"        s & i & ) G $ p s ' =.=.6.-.;.1.....$...I ! | ( | | o.o.7.t.c.c.c.c.t.o.| | W W +.` > j.m.C.C.m.K % # j.O.E Z 4         ",
"          L * _ ' b > Q l `  .' +.;.+.-.` ( ` R ( I I ( o.] 3.7.c.c.c.c.t.b.7.o.| ( ( ~ { 7.% ..A.m.m.Z ` G ) j.g.N >.          ",
"          l % E ; _ E N E =  .{ [ X.` ~ F  .I F R ~ ~  ...o.$.1.7.7.t.c.b.b.b.c.o.| [ ( ..3.c n s.A.T G s.= A._ | , Z           ",
"            K 1 E _ Y D > G Y ` | R ~ C F I H I I I ~ (  ...| 1.7.c. .c.o.b.I.o.o.o.o.o.3.h./ m A.8.5.8 r j.m.K O.=.            ",
"            s $ l 4 ) r E h b W ) ~ J J H R H J R I ( ..! I ( ( ] o.c.7.t.b.c.c.o.3.7.o.t.c.G 7 l.W B l j.j.j.Y b l             ",
"              D l { r _ n q E A Y N v C ~ R F P m I ( ! ! I | R o.o.N.D.D.b.b.b.N.t. .t.b.W , p.s 5.8 >.l.8.j C.C.              ",
"                B N 8 _ Q ) _ b O T k l R R J H C n R I | R T ` J R J ! X.3.4.7.$.7...6.x i y.) n u a m.K.m.n m.                ",
"                s % Q : Q E K 4 K Y x S u R T P c I J C P J R 1.4.X.4.@.| ( 7.p. .m.` - ` y.c 8 l.m m.C.4 : K Z                 ",
"                  A @ d E _ ` E K x B 4 P 8 g R T F H R ~ | ~ I J } P 7.W D.m.p.$.9 4 ../ <.C.l 9 l.m.x G.u s.                  ",
"                    Z s 4 ) E E < _ . n - ~ Q r r F I H C | R y.m ~ I c.t.4.I 3 1 ;.R 8.V : C.C.l.G.m.8 d l.                    ",
"                      D 3 E o ) _ E 4 { A $ > m R C 3 , j A 6 x | 7 J d - > ~ ..y.R p { M 2 l.m.K.K 1 l.8.                      ",
"                        G # L h s _ Y E ) K ^ % I ^ z ) ~ ~ ~ I ~ W  .( [ 7.e , y.G e m.y.d.m.K.1 K.s d.                        ",
"                          G * 8 ' s O.{ A = K 1 m M  .* M F L  .( 3 [ +.* I M * N.p.t R C.C.r +.3 B e.                          ",
"                            8 x Y = ) u ` _ ' = u =.) T x * G H ` 6 ( G 1 @.7.> j.m.G.m.K.F g 2 m.m                             ",
"                                G = u # L 3 ' ) _ L x T % c H n 7.* B | 3 > y.m.y.G.,.d V t R 1.                                ",
"                                  r K 8 f * ' - +.~ ' -.$.$.-.` | d.8.d.m.m.m.P ( % ` z $.| e                                   ",
"                                      s G 3 ~ 1 2 : =.2 I x 1.A 8.M 7.f X.% ~ 7 m.J B I g                                       ",
"                                          * G Z , 9 y > p * ~ + 5.= 5.> ` g y.d I R >                                           ",
"                                                  B I K k r 3 1 e 1 f S F R S                                                   ",
"                                                                                                                                ",
"                                                                                                                                ",
"                                                                                                                                "
};
