/* XPM */
static char *_d63856190d14b32c77d1fe32219d919JQ6X4yqyvdw5vo8w[] = {
/* columns rows colors chars-per-pixel */
"16 16 143 2 ",
"   c None",
".  c #342800",
"X  c #352800",
"o  c #362900",
"O  c #3C2D00",
"+  c #3F2F00",
"@  c #3F3000",
"#  c #453500",
"$  c #483700",
"%  c #493800",
"&  c #533E00",
"*  c #614900",
"=  c #694F01",
"-  c #684F02",
";  c #715605",
":  c #715706",
">  c #7A6114",
",  c #826817",
"<  c #836919",
"1  c #8A6F1C",
"2  c #957924",
"3  c #987D2B",
"4  c #9A7E2D",
"5  c #9C802B",
"6  c #9D812D",
"7  c #9D812F",
"8  c #9F822E",
"9  c #AC903E",
"0  c #B2943F",
"q  c #B2953F",
"w  c #B39644",
"e  c #B89C49",
"r  c #BB9E49",
"t  c #B99D4A",
"y  c #BCA04D",
"u  c #BFA34E",
"i  c #C0A14C",
"p  c #C6A64F",
"a  c #C6A952",
"s  c #C7AA54",
"d  c #CCAD56",
"f  c #CCAD57",
"g  c #CAAD5A",
"h  c #CFB15A",
"j  c #CFB15D",
"k  c #D0B15A",
"l  c #D2B35B",
"z  c #D6B65E",
"x  c #D3B763",
"c  c #D9B961",
"v  c #D9BA63",
"b  c #DBBC64",
"n  c #DABC67",
"m  c #DFBF66",
"M  c #DFBF67",
"N  c #DBBD69",
"B  c #DFC06C",
"V  c #E0C067",
"C  c #E3C36A",
"Z  c #E3C46B",
"A  c #E4C46B",
"S  c #E0C26D",
"D  c #E2C36C",
"F  c #E0C26E",
"G  c #E2C56F",
"H  c #E7C76D",
"J  c #E4C56E",
"K  c #E8C86E",
"L  c #E1C470",
"P  c #E3C570",
"I  c #E5C773",
"U  c #EBCB72",
"Y  c #EACC74",
"T  c #EACC77",
"R  c #EBCD77",
"E  c #EDCD74",
"W  c #EDCE76",
"Q  c #ECCE78",
"!  c #EDCF78",
"~  c #F0CE75",
"^  c #EFD17A",
"/  c #EFD17B",
"(  c #F2D178",
")  c #F2D279",
"_  c #F1D27A",
"`  c #F5D47A",
"'  c #F1D57C",
"]  c #F2D57C",
"[  c #F7D67C",
"{  c #F5D67E",
"}  c #F7D77E",
"|  c #F6D77F",
" . c #F8D982",
".. c #F9DB82",
"X. c #FDDC82",
"o. c #FCDD82",
"O. c #FCDC83",
"+. c #F9DB84",
"@. c #FADC85",
"#. c #FBDE86",
"$. c #FDDD84",
"%. c #FDDF84",
"&. c #FCDD86",
"*. c #FEDF86",
"=. c #FDDF89",
"-. c #FFE085",
";. c #FEE186",
":. c #FFE186",
">. c #FDE286",
",. c #FFE287",
"<. c #FEE288",
"1. c #FFE388",
"2. c #FFE289",
"3. c #FCE38B",
"4. c #FFE68C",
"5. c #FFE98D",
"6. c #FFE88F",
"7. c #FFEB8F",
"8. c #FFE990",
"9. c #FFEB90",
"0. c #FFEB91",
"q. c #FFEB92",
"w. c #FFEC90",
"e. c #FFEC91",
"r. c #FFED92",
"t. c #FFEF94",
"y. c #FFEE95",
"u. c #FFF096",
"i. c #FFF196",
"p. c #FFF097",
"a. c #FFF197",
"s. c #FFF296",
"d. c #FFF297",
"f. c #FFF397",
"g. c #FFF198",
"h. c #FFF298",
"j. c #FFF398",
"k. c #FFF498",
"l. c #FFF499",
"z. c #FFF599",
"x. c #FFF69B",
"c. c #FFF69C",
"v. c #FFF79C",
/* pixels */
"                                ",
"          2 = 3.o.& w           ",
"      % l.e.k.7 1 * # G $       ",
"    . a.a.k.-.' k J T T S <     ",
"    h.a.h.l.) -.b f ; ) # S     ",
"  3 3.h.l.e.K >.f m c *.^ 4 x   ",
"  7 @.a.v.o.E q a.p X t.{ N y   ",
"  =.@.0.h.` ~ l.7.A >.l.*.! T   ",
"  I  .4.e.t.z C k.k >.a.0.*./   ",
"  g 9 *.a.7.` >.a.[ H a.t. .B   ",
"  L t { { U m ` 7.7.m @ t., t   ",
"    J . G a Z ) e.k.o.4.s h.    ",
"    O N - r i  .0 ` k 0.t.>     ",
"      # ! i T b >.7 8 h.'       ",
"          k { 3.4.h.:           ",
"                                "
};
